<svg xmlns="http://www.w3.org/2000/svg" viewBox="0 0 1925.52 949.86">
  <defs>
    <pattern id="a" x="0" y="0" width="343.4" height="343.4"
      patternTransform="translate(420 -195.44)" patternUnits="userSpaceOnUse">
      <path
        d="M2.27 262.25c-.77-.43-1.53-.88-2.27-1.36v7.32c5.81 3.03 12.66 5.46 16.25 11.06 1.67 2.61 2.86 6.06 1.57 9.08-1.23 2.88-4.41 4.17-7.37 4.27-3.93.14-7.37-1.56-10.45-3.91v7.46c1.26.7 2.55 1.33 3.92 1.81 6.07 2.1 13.83.95 17.98-4.28 4.48-5.64 2.97-13.46-1.06-18.89-4.63-6.24-12.02-8.9-18.57-12.56Zm23.22-16.06c-3.2-6.55-9.28-11.96-14.93-16.37-3.11-2.42-6.33-4.67-9.62-6.83-.31-.2-.62-.41-.93-.62v7.61c2.05 1.38 4.09 2.79 6.05 4.3 5.44 4.18 12.05 9.68 14.48 16.32.78 2.13 1.67 5.92-.84 7.3-2.77 1.52-6.25-1.4-7.82-3.45-3.83-5-5.97-11.55-11.88-14.11v7.57c2.54 2.53 3.92 6.11 5.91 9.04 3.61 5.32 10.92 10.26 17.29 6.25 5.93-3.73 4.94-11.57 2.29-17.01Zm125.03 96.78c.02.15.06.29.09.44h6.42c-.02-.09-.05-.18-.07-.27-.67-3.13-.02-6.11.9-9.12 1.7-5.61 3.33-10.7 2.67-16.65-.59-5.25-2.6-10.91-1.62-16.2.63-3.42 2.81-8.29 6.93-8.27 5.51.04 7.07 7.11 7.19 11.35.18 6-.47 12.13-1.43 18.05-.45 2.78-.99 5.55-1.63 8.29-.7 3-1.84 6.09-1.73 9.21.05 1.32.34 2.51.79 3.6h8.15c-1.05-.52-1.92-1.3-2.36-2.39-.88-2.22.37-5.13.9-7.29.75-3.06 1.39-6.15 1.9-9.25.99-5.94 1.63-11.97 1.74-18 .09-5.24-.58-10.68-3.94-14.9-2.87-3.6-7.44-5.78-12.06-4.74-9.9 2.22-11.68 14.2-10.47 22.51.86 5.89 2.28 11.4.65 17.29-1.5 5.42-3.81 10.59-3.01 16.34Zm-25.57.43c.05-.84.13-1.69.26-2.54.66-4.52 1.98-11.65 6.52-13.97 4.91-2.51 6.86 2.6 6.19 6.64-.58 3.46-1.87 6.59-2.63 9.87h6.34c.61-2.31 1.52-4.55 2.1-6.87 1.1-4.36 1.02-9.39-1.91-13.05-2.98-3.73-8.01-4.41-12.25-2.55-7.85 3.44-10.57 13.73-11.02 22.47h6.4Zm58.91 0h8.9c3.12-5.39 3.14-12.73 2.19-18.72-.41-2.6-.98-5.37-.57-8.01.39-2.45 1.8-4.15 3.57-5.76 3.65-3.32 7.41-6.1 8.6-11.18 1.08-4.58-.32-9.97 1.69-14.29 1.74-3.72 6.79-4.51 10.23-2.84 4.03 1.96 5.71 6.97 5.44 11.18-.33 5.23-3.59 9.84-7.31 13.31-3.89 3.63-7.45 6.27-8.79 11.72-1.34 5.5-1.33 11.41-.58 16.98.35 2.59.9 5.12 1.63 7.61h6.63c-.72-2.16-1.32-4.36-1.73-6.59-.99-5.38-1.14-11.42.27-16.74 1.36-5.15 6.67-7.62 9.91-11.53 6.15-7.4 8.98-18.33 2.93-26.72-5.1-7.07-16.33-8.97-22.46-1.99-3.49 3.97-3.4 9.28-3.58 14.25-.08 2.21-.2 4.53-1.36 6.48-1.18 1.99-3.16 3.41-4.89 4.89-3.93 3.36-6.47 7.21-6.65 12.51-.17 5.26 1.8 10.36 1.32 15.64-.33 3.63-1.94 8.06-5.42 9.8Zm43.07-19.93c-1.63 5.22-.56 10.46.84 15.59.39 1.44.8 2.89 1.12 4.35h6.44c-.94-4.96-3.23-9.87-2.92-14.95.29-4.78 3.31-8.86 5.88-12.69 2.5-3.74 5.06-7.66 6.02-12.13 1.29-6.01-.73-12.11.35-18.07.57-3.12 3.41-8.66 7.44-6.92 4.22 1.83 4.32 8.33 4.61 12.1.38 4.91 1.12 9.93 4.67 13.64 2.95 3.08 7.23 4.48 11.42 4.58 10.06.24 17.48-6.38 23.52-13.68 1.57-1.9 3.1-3.84 4.7-5.72 1.36-1.6 3.72-5.46 6.04-4.29 4.41 2.23 3.62 9.02 2.07 12.65-3.73 8.78-12.47 17.69-21.8 20.24-10.25 2.8-20.45-4.43-30.68-.55-4.34 1.65-8.2 5.19-8.69 10.03-.52 5.12 3.29 8.4 7.68 10.04 4.55 1.71 9.65 2.53 14.43 3.32 4.99.82 10.06 1.37 15.12 1.07 10.03-.59 18.75-4.65 24.87-12.73 2.92-3.86 5.14-8.17 7.65-12.3 2.41-3.98 5.38-8.67 9.76-10.7 3.94-1.82 6.75.57 7.3 4.5.62 4.37-1.23 8.11-3.49 11.69-2.7 4.29-5.88 8.56-6.92 13.64-.5 2.47-.4 4.86-.05 7.22h6.41c-.47-2.85-.53-5.7.69-8.66 1.92-4.67 5.45-8.48 7.63-13.02 3.18-6.6 3.49-17.3-4.01-21.22-9.78-5.11-18.43 6.12-22.81 13.33-4.92 8.1-9.05 17.06-18.7 20.31-9.49 3.2-20 1.36-29.5-.8-2.85-.65-11.57-1.63-9.41-6.35 1.82-3.99 7.43-4.53 11.2-4.24 5.68.43 11.11 2.59 16.87 2.44 4.94-.13 9.73-1.72 13.96-4.23 4.19-2.49 7.91-5.84 11.05-9.55 3.46-4.08 6.79-8.7 8.26-13.91 1.25-4.45.96-9.55-1.55-13.53-2.63-4.15-7.93-7.26-12.54-4.24-4.28 2.8-7.37 7.86-10.6 11.73-3.07 3.67-6.46 7.54-10.9 9.58-3.54 1.62-8.09 2.31-11.77.76-4.48-1.88-5.23-6.73-5.56-11.06-.36-4.76-.71-9.61-3.53-13.66-2.56-3.69-6.86-5.92-11.38-4.76-4.24 1.09-7.22 4.87-8.76 8.78-2.13 5.43-.85 11.17-.86 16.81-.01 10.07-8.74 16.4-11.59 25.54ZM59.66 343.4h6.56c-.94-2.75-1.29-6.06 1.05-7.77 3.26-2.38.11-7.88-3.2-5.47-3.76 2.74-5.22 6.91-4.71 11.48.07.6.17 1.19.3 1.76Zm36.12 0c-1.19-3.73-2.88-8.46 1.53-10.31 4.13-1.74 7.98 1.26 9.57 4.98.77 1.79 1.09 3.56 1.14 5.33h6.26c-.01-.72-.06-1.45-.14-2.18-1.03-8.94-8.9-17.6-18.52-14.24-4.44 1.55-7.48 5.41-7.57 10.17-.04 2.11.6 4.18 1.26 6.25h6.47ZM0 26.31c2.29-1.65 4.8-2.74 7.7-2.76 3.07-.02 7.44 1.22 7.94 4.81.69 4.97-5.24 8.1-8.91 9.78-2.34 1.08-4.56 2.17-6.73 3.35v7.2c1.37-.92 2.78-1.79 4.27-2.53 4.72-2.34 9.93-3.88 13.63-7.84 3.17-3.39 5.08-8.18 3.54-12.77-1.25-3.69-4.41-6.19-8-7.43-4.88-1.7-9.39-.92-13.44 1.14v7.05Zm21.77 53.91C26.15 70 15.29 62.58 6.07 63.81c-2.11.28-4.12.86-6.07 1.61v6.84c4.4-1.98 9.95-3.76 14.2-.55 4.29 3.25 1.36 8.09-2.29 10.36-3.54 2.2-7.79 2.67-11.91 3.38v6.33c3.72-.78 7.61-1.07 11.17-2.37 4.46-1.63 8.68-4.7 10.6-9.18Z" />
      <path
        d="M81.06 112.55c-1.99-4.27-6.3-6.75-10.68-7.99-4.95-1.41-10.25-1-15.14-2.64-4.64-1.55-7.13-5.52-8.18-10.11-2.47-10.69 3.66-22.1-.8-32.51-4.06-9.46-17.57-11.04-22.93-1.81-2.73 4.69-1.76 9.3.28 13.99 2.16 4.99 2.33 10 .28 15.1-3.76 9.35-13.98 15.58-23.4 18-.15.04-.33.08-.49.11v6.48c8.22-1.36 16.61-6.06 22.39-11.56 7.34-6.98 11.72-18.17 8.08-28.08-.88-2.4-2.53-4.77-2.59-7.39-.05-2.3 1.23-4.63 3.21-5.79 4.64-2.72 9.05 1.11 10.07 5.6 1.24 5.47-.18 11.44-.7 16.92-.49 5.19-.48 10.58 1.37 15.53 1.67 4.47 4.63 8.43 9.02 10.53 4.85 2.31 10.1 2.2 15.28 3.14 3.81.69 9.47 2.43 9.72 7.12.22 4.27-4.21 7.91-8.06 8.69-11.11 2.23-20.19-9.4-29.5-13.3-4.29-1.8-9.36-2.53-13.6-.2-1.51.83-2.8 1.99-4.24 2.92-2.2 1.42-4.6 2.48-7.08 3.31-4.29 1.41-8.81 2.19-13.37 2.49v6.27c9.43-.54 18.46-2.92 26.22-8.46 4.01-2.86 8.36-1.42 12.38.87 4.83 2.75 9.06 6.42 14.01 8.99 9.08 4.73 20.67 5.5 27.11-3.85 2.51-3.64 3.23-8.3 1.34-12.37Zm-46.7 21.23c-5.04-2.23-9.94.31-14.35 2.78C13.78 140.05 6.94 142.19 0 143v6.4c5.85-.6 11.66-2.04 17.21-4.41 2.33-1 4.56-2.15 6.77-3.39 2.1-1.18 4.83-2.98 7.36-2.22 3.5 1.05 4.49 6.03 3.2 9.01-1.78 4.1-6.42 6.26-10.52 7.21-6.15 1.41-12.6.63-18.84 1.34a60.7 60.7 0 0 0-5.18.81v6.41c8.33-1.87 17.34-.53 25.7-2.44 8.74-2 17.3-9.09 15.44-18.89-.72-3.81-3.19-7.44-6.78-9.03Zm-21.9 39.19c-4.92-2.84-8.76-.29-12.46 2.67v7.89c.82-.63 1.62-1.29 2.4-1.94 1.69-1.4 5.13-4.95 7.4-2.73 3.62 3.53-1.89 8.77-4.38 10.89-1.7 1.44-3.51 2.85-5.42 4.1v7.17c2.8-1.45 5.45-3.23 7.87-5.14 3.74-2.95 7.74-6.43 8.93-11.27 1.05-4.25-.39-9.38-4.34-11.65ZM326.32 9.48c.59 3.12.59 8.8-3.12 10.14-4.94 1.77-9.41-5.12-12.32-7.98-3.72-3.64-8.18-5.62-13.39-5.86-5.2-.24-10.3 1.14-15.44 1.68-2.34.25-4.76.4-7.09.04-3-.46-5.83-1.74-8.67-2.78-4.58-1.67-9.71-2.77-14.43-.93-9.78 3.8-8.95 16.46-1.85 22.45 8.5 7.17 22.21 7.55 32.51 5.1 4.79-1.14 10.53-4.38 14.73-.33 2.81 2.71 4.45 6.47 6.93 9.48 6.82 8.26 17.48 6.31 25.11.28 4.7-3.72 8.79-10.61 14.12-14.45v-7.05c-3.74 1.91-7.1 4.91-9.99 8.13-5.02 5.58-15.32 18.11-23.47 10.06-2.8-2.77-4.46-6.5-6.96-9.52-2.94-3.55-7.02-5.64-11.7-5.23-5.95.52-11.38 3.23-17.43 3.54-5.49.28-11.52-.3-16.53-2.75-3.93-1.92-8.08-6.31-6.12-11.07 1.86-4.52 8.07-3.37 11.67-2.18 5.3 1.74 10.08 3.92 15.79 3.8 5.25-.11 10.35-1.51 15.57-1.86 5.33-.36 9.31.97 13.03 4.84 3.66 3.81 7.19 8.06 12.72 8.98 10.62 1.77 14.02-9.98 12.44-18.2-.51-2.66-1.27-5.23-1.7-7.8h-6.41c.47 3.16 1.39 6.28 2 9.48Z" />
      <path
        d="M322.62 55.95c-4.69 2.44-10.69 3.91-15.57 1.16-4.2-2.37-6.77-6.93-9.82-10.49-3.28-3.83-7.87-7.18-13.06-7.55-4.4-.31-8.63 1.93-10.73 5.83-4.84 9.02 1.34 18.02 8.69 23.13 4.59 3.2 9.66 5.94 14.66 8.43 5.03 2.51 10.34 4.7 15.91 5.63 11.45 1.92 20.41-5.09 30.27-9.63.14-.07.29-.13.44-.2v-6.84c-8.22 3.16-15.33 9.46-24.16 10.63-5.62.74-11.66-1.54-16.68-3.83-4.99-2.28-9.82-5.02-14.49-7.89-3.96-2.43-8.58-5.57-9.69-10.4-.77-3.34.23-8.07 4.27-8.56 5.03-.61 9.14 4.45 11.88 7.92 3.07 3.89 6.15 7.92 10.79 10.02 10.39 4.69 21.14-1.52 29.18-7.86 2.93-2.31 5.8-4.71 8.9-6.77v-7.2c-2.67 1.45-5.25 3.05-7.78 5.02-4.22 3.29-8.23 6.96-13.01 9.44ZM186.29 5.88c2.95-1.33 5.04-3.4 6.48-5.88h-8.9c-.19.1-.37.22-.58.3-1.75.68-4.23.62-6.12-.3h-8.15c2.58 6.24 11.04 8.69 17.27 5.88Zm-83.1 21.37c1.08 4.29 4.26 8.19 8.76 9 4.77.85 9.12-1.89 11.8-5.68 3.19-4.51 3.18-10.07 2.45-15.32-.71-5.14-1.58-10.1-1.25-15.24h-6.4c-.11 2.19-.09 4.29.04 6.15.39 5.61 2.59 11.56 1.49 17.18-.7 3.55-5.12 9.27-8.96 5.64-3.84-3.64-1.5-9.89-.05-14.04 1.69-4.82 3.3-9.8 3.21-14.94h-6.26c.29 9.1-7.17 17.93-4.83 27.25Zm-38-16.1c1.33 2.16 2.47 4.34 2.96 6.85.46 2.39.42 4.87.64 7.29.38 4.25 1.34 8.63 4.79 11.49 6.17 5.12 16.9 1.09 18.29-6.78.45-2.56-.51-5.03-.27-7.57.23-2.46 1.61-4.71 2.68-6.88 2.23-4.54 3.3-8.71 2.05-13.73-.14-.56-.33-1.18-.54-1.83h-6.47c.86 2.72 1.75 5.43 1.13 8.18-1.04 4.61-4.38 8.32-5.04 13.09-.54 3.89 1.99 8.63-2.5 10.83-8.96 4.4-7.74-11.24-8.64-15.78-1.01-5.12-4.34-9.1-6.81-13.54-.42-.76-.86-1.73-1.22-2.78h-6.56c.92 4.12 3.3 7.53 5.53 11.15Zm262.5 83.61c-2.21 4-2.27 8.9.71 12.52 2.71 3.29 7.05 4.42 11.17 4.29 1.27-.04 2.55-.18 3.83-.39v-6.48c-3.15.75-7.91 1.34-10.16-1.42-2.93-3.6 1.6-8.26 4.7-9.76 1.73-.84 3.58-1.35 5.46-1.74v-6.33c-1.41.24-2.81.51-4.15.89-4.73 1.33-9.13 4.02-11.56 8.42Zm8.37 72.14c2.36-1.34 4.82-2.19 7.35-2.75v-6.41c-7.81 1.57-16.06 5.04-18.79 12.86-2.65 7.59 2.9 17.84 11.71 16.43 2.68-.43 4.96-1.85 7.08-3.48v-7.89c-2.17 1.74-4.3 3.62-6.58 4.65-3.33 1.5-5.83-.89-6.43-4.19-.76-4.13 2.33-7.31 5.66-9.2Z" />
      <path
        d="M343.4 193.86c-2.76 1.81-5.74 3.27-8.96 3.9-4.81.95-10.2-.32-13-4.61-2.63-4.04-2.99-9.22-3.54-13.88-.98-8.44-3.66-18.99-13.05-21.53-2.7-.73-5.48-.57-8.24-.45-3.11.13-6.03-.4-9.11-.67-5.05-.45-9.73 1.32-12.78 5.45-2.87 3.87-3.28 8.89-1.25 13.24 2.18 4.68 6.5 7.09 11.46 7.77 4.32.6 9.01.41 10.71 5.22 1.45 4.1 1.12 8.68 1.81 12.93 1.48 9.11 7.79 17.2 16.11 21.1 3.67 1.72 6.89-3.74 3.2-5.47-4.29-2.01-7.85-5.08-10.27-9.17-2.45-4.12-2.99-8.46-3.41-13.13-.39-4.37-.91-8.97-3.74-12.52-3.35-4.21-8.23-4.45-13.16-5.13-4.42-.61-8.86-3.81-7.46-8.9 1.61-5.82 7.51-5.2 12.24-4.6 4.87.62 11.28-1.42 15.3 2.11 3.13 2.75 4.3 7.36 4.96 11.3 1.55 9.19 1.43 20.42 10.97 25.4 7.11 3.7 14.56 2.24 21.19-1.18v-7.17Zm-42.07-56.94c11.94 9.8 27.15 13.99 42.07 12.47v-6.4c-13.77 1.6-27.97-2.13-38.8-11.58-7.22-6.3-14.66-16.07-14.4-26.13.11-4.52 2.43-8.67 6.83-10.24 3.76-1.34 7.04.35 8.59 3.93 3.15 7.29 1.37 16.2 7.78 22.08 3.78 3.47 8.89 4.74 13.83 5.5 4.88.76 9.82 1.11 14.76.92.47-.02.94-.06 1.41-.09v-6.27c-5.63.37-11.34-.02-16.76-1.06-4.52-.86-9.15-2.32-11.14-6.86-1.63-3.72-1.8-7.98-2.63-11.91-.78-3.67-2.16-7.41-5.03-9.96-3.34-2.96-7.94-3.79-12.18-2.49-10.14 3.12-13.31 13.87-10.96 23.38 2.39 9.65 9.04 18.49 16.63 24.72ZM141.63 0h-6.34c-.47 2.02-.73 4.09-.48 6.33.62 5.65 3.26 10.76 6.13 15.58 2.45 4.1 5.38 8.9 10.7 9.19 4.73.26 8.88-3.28 10.5-7.53 2.06-5.41-.06-11.2-2.27-16.18-1.07-2.4-2.25-4.81-2.84-7.39h-6.42c.92 5.56 4.3 10.23 5.61 15.66.59 2.44.75 5.26-.93 7.32-1.47 1.82-3.55 2.39-5.37.76-1.82-1.63-3.02-4.16-4.23-6.24-1.49-2.57-2.92-5.21-3.8-8.05-.83-2.66-1.14-5.36-.6-8.11.09-.45.21-.89.33-1.34Zm86.47 9.09c-.75 1.35-1.97 3-3.63 3.24-2.16.31-3.76-1.77-4.78-3.37-1.78-2.78-3.12-5.81-4.17-8.95h-6.63c.79 2.71 1.8 5.37 3.03 7.94 2.1 4.39 5.03 9.4 10.17 10.53 9.59 2.11 14.55-9.71 13.44-17.38-.05-.36-.13-.72-.2-1.08h-6.44c.66 3.07.84 6.14-.79 9.09Z" />
      <path
        d="M38.25 38.9c.5 3.07 2.53 5.53 5.3 6.88 5.61 2.74 11.71.56 17.4 2.41 2.79.91 3.93 2.62 2.4 5.38-1.84 3.33-4.14 6.03-4.93 9.88-1.45 7.07-.18 16.04 3.31 22.38 3.26 5.92 10.42 10.18 17.21 7.77 6.73-2.39 8.54-10 8.11-16.4-.5-7.32-3.92-16.95 1.68-23.13 1.97-2.18 5.08-3.67 7.8-1.87 2.27 1.51 3.11 4.52 3.62 7.04.7 3.45.62 7.04.72 10.55l.39 13.76c.12 4.31.36 8.65 0 12.95-.33 3.95-1.68 7.59-2.65 11.39-1.64 6.41-1.24 14.4 6.17 16.84 6.84 2.26 13.61-2.26 16.79-8.13 1.85-3.41 2.87-7.2 3.91-10.92 1.16-4.18 2.22-8.44 2.45-12.79.23-4.28-.69-8.46-1.52-12.64-.88-4.41-1.13-8.81-.92-13.29.24-4.9.07-20.2 7.84-20.01 3.09.08 4.51 3.92 5.22 6.39.92 3.24 1.27 6.57 2.57 9.7 2.57 6.19 8.77 9.7 15.16 6.68 2.56-1.21 4.7-3.31 5.75-5.95 1.36-3.41.33-6.74-.72-10.08-1.08-3.43-.77-5.13 2.57-6.58 2.74-1.18 5.61-1.95 7.95-3.89 2.78-2.3 3.84-5.71 4.34-9.16.36-2.46.38-6.99 2.93-8.39 1.18-.65 2.78-.12 4.01.13 1.69.33 3.39.66 5.1.36 1.54-.26 2.86-.97 3.93-2.11.63-.68 1.06-1.45 1.45-2.29.25-.54.53-1.93 1.07-2.25 2.01-1.18 4.18 3.28 4.56 4.67.87 3.14 1.34 6.49 3.2 9.25 4.61 6.83 12.57 4.57 19.02 2.26 2.39-.86 5.89-1.97 8.32-.67 3.14 1.67.22 5.31-1.64 6.65-2.95 2.12-6.99 2.37-10.4 3.34-3.66 1.04-6.45 2.83-9.27 5.33-.99.87-2.06 1.88-3.47 1.78-1.63-.12-3.26-1.45-4.64-2.2-3.22-1.74-6.65-2.63-10.25-1.5-3.62 1.14-6.63 3.69-9.2 6.39-2.64 2.77-5.33 5.79-6.82 9.37-2.88 6.92.36 14.4 7.98 15.77 7.99 1.44 15.87-1.05 22.98-4.56 3.59-1.77 7-3.87 10.5-5.81 3.13-1.74 6.48-3.01 9.82-4.27 6.57-2.47 13.01-4.91 18.35-9.6 1.92-1.69 6.7-5.6 8.97-2.41 1.93 2.72.58 7.18.25 10.13-.82 7.23 2.59 11.82 7.91 16.17 1.87 1.53 4.02 3.03 5.39 5.04 1.7 2.49.57 4.76-.9 7.1-1.94 3.07-3.74 6.07-3.67 9.84.07 3.88 1.81 7.5 3.73 10.79 3.6 6.2 7.11 12.26 6.92 19.7-.08 3.26-1.02 6.6-3.16 9.14-2.27 2.7-5.51 3.55-7.15-.11-1.57-3.49-.75-7.74-1.37-11.44-.64-3.82-2.66-7-5.07-9.95-2.46-3.01-5.55-5.74-7.05-9.42-1.64-4.04.44-6.45 2.37-9.83 8.26-14.51-10.36-27.9-23.59-26.3-6.97.84-13.46 5.85-14.39 13.11-.87 6.81 3.86 11.87 8.03 16.58 2.19 2.47 4.22 5.02 4.94 8.31.84 3.79.31 7.77.51 11.62.2 3.83 1 7.61 3.16 10.85 2 3 4.68 5.37 7.22 7.88 5.12 5.06 6.87 10.99 7.69 18.01.77 6.55 1.08 13.28 3.74 19.41 2.59 5.97 7.47 10.02 13.07 13.07 5.23 2.85 11.22 4.92 15.61 9.08 5.42 5.13 6.15 13.12 9.56 19.47 3.31 6.16 8.86 11.2 15.2 14.09 5.93 2.7 13.44 4.32 19.78 2.1 3.01-1.05 5.78-2.92 7.13-5.91.71-1.56.9-3.23.95-4.93.04-1.25-.38-3.39 1.13-3.77 2.75-.7 7.02 3.02 9.07 4.35 1.25.81 2.5 1.65 3.74 2.48v-7.61c-2.75-1.83-5.51-3.74-8.63-4.85-2.93-1.04-6.34-1.09-8.83.99-3.1 2.59-2.34 6.04-2.87 9.58-1 6.7-12.87 4.12-16.86 2.66-6.47-2.37-11.89-7.29-14.89-13.48-3.27-6.74-4.33-14.28-9.99-19.65-4.42-4.18-10.06-6.52-15.39-9.28-5.54-2.86-10.5-6.32-12.61-12.47-2.19-6.4-2.13-13.31-3.2-19.93-1.11-6.85-3.7-12.68-8.65-17.62-2.48-2.48-5.39-4.78-7.13-7.87-1.98-3.52-1.73-7.7-1.72-11.6 0-3.96-.19-7.95-1.79-11.64-1.23-2.84-3.2-5.25-5.23-7.56-3.81-4.33-9.52-9.95-4.55-15.72 5.12-5.93 15.16-3.83 20.48.72 2.33 1.99 4.48 4.75 4.87 7.88.46 3.65-2.27 6.12-3.72 9.18-3.73 7.83 1.72 14.92 6.7 20.58 2.64 3.01 4.83 5.97 5.16 10.08.3 3.66.01 7.34 1.42 10.81 2.92 7.19 10.74 8.84 16.49 3.66 5.12-4.61 6.71-11.99 5.92-18.59-.91-7.68-4.61-13.6-8.25-20.22-1.88-3.42-3.09-6.86-1.03-10.47 1.72-3.02 3.96-5.7 4.28-9.3.51-5.77-3.81-9.6-7.88-12.92-1.99-1.62-4.3-3.32-5.57-5.6-1.9-3.42-.33-7.6-.09-11.25.43-6.77-3.59-13.83-11.27-12.5-3.78.65-6.88 3.08-9.7 5.54-2.58 2.25-5.65 3.84-8.79 5.18-6.6 2.82-13.4 4.88-19.65 8.48-6.84 3.94-14.16 8.43-22.27 8.83-3.18.16-8.25.27-8.84-3.79-.55-3.78 2.54-7.09 4.86-9.68 2.25-2.5 5.14-5.85 8.69-6.3 3.31-.42 6.36 2.69 9.35 3.7 3.49 1.18 6.74.12 9.51-2.12 1.3-1.05 2.42-2.3 3.86-3.16 1.66-.99 3.52-1.49 5.38-1.95 6.59-1.63 14.27-3.72 16.2-11.29 1.82-7.13-4.87-11.69-11.28-11.19-3.45.27-6.43 1.56-9.68 2.61-3.09 1-7.03 1.96-8.9-1.48-1.47-2.71-1.54-6.01-2.67-8.85-1.17-2.94-3.5-5.48-6.42-6.73-2.81-1.21-6.08-.92-8.24 1.41-1.13 1.23-1.29 3.29-2.41 4.38-.9.88-2.77.11-3.9-.1-3.22-.61-6.44-.61-9.05 1.64-2.46 2.12-3.7 5.31-4.21 8.45-.51 3.09-.35 7.24-3.22 9.21-2.36 1.62-5.36 2.1-7.84 3.49-2.72 1.53-4.69 4-5.04 7.15-.41 3.71 1.84 6.77 2.04 10.34.14 2.45-2.02 4.42-4.38 4.75-3.16.45-4.78-2.75-5.57-5.29-1.86-6.01-2.05-13.25-7.91-17.05-6.76-4.39-14.28 1.06-16.8 7.55-1.43 3.71-1.75 7.86-2.16 11.79-.46 4.43-.71 8.92-.33 13.37.35 4.12 1.4 8.1 2.04 12.18.69 4.45.14 8.8-.92 13.15-1.49 6.1-3.19 17.2-10.74 18.61-8.71 1.63-4.68-10.03-3.49-14.19 2.42-8.5 1.57-17.46 1.32-26.18-.21-7.46.45-15.64-1.68-22.89-1.71-5.84-6.21-11.01-12.8-10.48-7.09.57-12.25 7.33-13.29 13.95-.67 4.29-.16 8.54.42 12.81.47 3.48 1.12 7.18.39 10.67-1.72 8.2-10.43 5.64-13.48-.25-3.25-6.29-4.28-16.09-.32-22.18 1.9-2.92 4.03-5.85 3.76-9.52-.23-3-1.99-5.51-4.53-7.05-5.52-3.35-11.61-1.33-17.49-2.7-1.05-.25-2.23-.56-3.04-1.32-1.31-1.21-.96-3-.79-4.61.38-3.59-.17-6.59-2.02-9.71-1.93-3.27-8.56-10.07-2.24-12.54 6.5-2.53 9.99 5.46 10.45 10.56.36 4.03 6.7 4.07 6.34 0-.59-6.6-3.38-13.87-10.02-16.49-5.36-2.11-12.51-.04-14.99 5.4-2.91 6.39 2.24 11.42 5.16 16.56 1.93 3.41.37 6.59.97 10.23Zm290.72 211.41c.57 7.25 6.03 12.92 11.98 16.53.79.48 1.61.93 2.46 1.37v-7.32c-2.3-1.49-4.43-3.26-6.01-5.53-1.45-2.09-3.6-6.85-1.23-9.08 1.9-1.78 5.38-.15 6.96 1.32.1.09.19.2.28.29v-7.57c-.77-.33-1.59-.61-2.49-.79-7.07-1.45-12.51 3.59-11.94 10.77Z" />
      <path
        d="M343.4 288.72c-2.94-2.24-5.55-5.09-7.95-7.53-2.94-2.99-5.84-6.05-8.16-9.57-2.02-3.07-3.76-6.3-6.11-9.14-4.79-5.81-12.22-7.85-19.44-6-7.28 1.86-12.85 7.44-16.5 13.8-.83 1.45-1.57 2.95-2.23 4.48-.51 1.16-1.24 3.93-2.71 4.21-3.58.68-4.1-6.1-4.31-8.2-.33-3.26-.68-6.86.4-10.02 1.1-3.21 3.83-4.35 6.46-6.11 2.64-1.77 4.85-4.03 5.22-7.32.35-3.18-1.25-5.93-3.37-8.18-2.33-2.48-5.24-4.35-7.03-7.31-1.91-3.16-2.88-6.75-4.13-10.19-2.35-6.48-6.28-12.82-13.32-14.87-6.83-1.99-13.07 2.56-14.25 9.38-1.42 8.17 4.13 15.11 5.62 22.84.73 3.77.57 7.89-1.66 11.16-1.78 2.6-4.62 4.32-7.49 5.48-3.01 1.22-6.22 1.96-9.39 2.63-2.96.62-6.8 1.27-6.47-2.88.25-3.24 2.35-5.54 4.43-7.82 2.38-2.61 4.76-5.27 5.93-8.67 1.23-3.59.44-7.3-.67-10.8-1.04-3.28-2.26-6.45-.56-9.72 1.52-2.92 3.76-5.38 4.84-8.54 1.12-3.26.57-6.62-.97-9.65-1.49-2.93-3.85-5.31-5.45-8.18-1.65-2.96-1.68-6.3-1.36-9.59.66-6.81 2.77-13.63.28-20.33-1.41-3.79-7.53-2.15-6.11 1.68 2.53 6.81-.49 14.03-.67 20.99-.09 3.39.5 6.74 2.03 9.78 1.54 3.06 4.06 5.49 5.63 8.52 1.66 3.19.46 5.61-1.37 8.41-1.85 2.83-3.69 5.59-4.04 9.04-.39 3.8 1.12 7.29 2.13 10.87 1.02 3.65.39 6.39-2 9.32-4.19 5.12-9.46 9.75-8.26 17.1.5 3.08 2.47 5.64 5.42 6.73 3.57 1.31 7.54.19 11.1-.64 6.21-1.44 12.93-3.67 17.14-8.75 5.12-6.18 4.97-14.42 2.62-21.73-1.26-3.94-3.37-7.61-4.29-11.67-.65-2.87-.55-7.04 2.4-8.65 2.71-1.48 5.98.49 7.95 2.34 2.66 2.49 3.93 5.68 5.11 9.06 1.21 3.45 2.31 7.01 4.15 10.19 1.72 2.97 4.15 5.12 6.64 7.41 1.88 1.72 4.59 4.11 1.96 6.39-2.35 2.04-5.38 3.04-7.47 5.45-4.68 5.37-4.04 13.08-3.15 19.64.46 3.44 1.42 6.97 4.13 9.34 2.61 2.28 6.46 3.24 9.63 1.5 3.28-1.8 4.25-5.61 5.8-8.73 1.67-3.36 3.74-6.51 6.53-9.05 5.09-4.64 13.57-6.63 19.02-1.43 2.66 2.54 4.34 5.87 6.3 8.93 2.27 3.55 4.99 6.76 7.9 9.79 4.24 4.42 8.69 9.23 14.13 12.25v-7.46Z" />
      <path
        d="M25.87 173.16c5.68 3.42 7.39 11.66 4.12 17.32-2.03 3.52-6.04 4.9-8.83 7.68-3.16 3.14-4.35 7.49-3.8 11.86 1.23 9.76 9.77 15.22 15.76 22.08 5.62 6.43 11 15.58 8.86 24.45-1.14 4.74-4.17 8.58-4.61 13.55-.48 5.36 1.47 10.53 2.95 15.58 1.1 3.74 2.02 8 .73 11.82-1.4 4.14-5.46 5.1-9.33 5.71-7.48 1.17-15.85 2.87-17.15 11.76-1.11 7.61 3.84 15.06 11.2 17.12 9.24 2.57 17.5-2.37 23.97-8.47 2.91-2.74 5.97-5.11 9.83-6.32 2.69-.85 6.33-1.47 8.47.87 1.14 1.24 1.68 3.04 2.52 4.48 1.04 1.77 2.39 3.51 4.22 4.52 3.77 2.08 7.76.66 10.74-2.05 3.16-2.88 5.14-6.61 9.34-8.2 4.6-1.74 8.6-.22 12.97 1.33 4.3 1.52 8.96 2.3 12.99-.38 2.96-1.97 5.16-6.42 8.89-6.86 4.1-.49 8.13 1.41 12.06-.66 4.07-2.14 4.77-6.56 4.19-10.72-.62-4.42-1.39-8.11 1.08-12.18 2.51-4.15 6.82-6.59 11.41-7.78 4.43-1.15 9.46-1.45 13.93-.32 2.07.52 4.03 1.39 5.64 2.81 1.6 1.4 2.77 3.23 4.33 4.66 2.89 2.65 7.33 4.3 11.02 2.19 4.52-2.59 3.22-7.22 2.7-11.42-.47-3.81 2.15-7.66 6.01-8.32 4.23-.73 8.54-.12 10.95-4.54 2.13-3.9.58-8.13-.56-12.04-1.23-4.21.44-6.51 3.3-9.44 2.51-2.58 5.17-5.12 6.48-8.56 1.45-3.8.47-7.73-.68-11.46-.54-1.76-1.32-3.68-1.24-5.55.09-2.09 1.6-3.27 2.93-4.71 2.85-3.09 4.06-6.94 2.02-10.85-1.91-3.66-5.89-5.82-7.58-9.6-1.84-4.14-.72-9.06-.33-13.39.49-5.41.43-10.9 1.55-16.23 1.04-4.96 3.17-9.4.65-14.29-1.89-3.67-5.5-6.03-6.33-10.26-.76-3.87.22-7.99.81-11.82.64-4.2 1.15-8.45.17-12.65-.99-4.26-3.71-7.72-6.65-10.84-1.45-1.55-2.98-3.03-4.34-4.66-1.43-1.72-2.38-3.72-3.65-5.55-2.63-3.78-6.31-5.54-10.87-5.74-4.43-.19-8.83 1.07-13.22 0-4.79-1.17-9.07-3.76-13.75-5.26-6.6-2.11-15.82-1.4-19.66 5.22-2.71 4.67-.63 9.6-1.52 14.54-.74 4.11-3.08 7.77-4.45 11.67-1.34 3.83-1.67 8.07.44 11.7 1.99 3.43 5.82 5.4 9.72 5.62 4.01.23 7.82-1.7 10.3-4.79 3.02-3.76 3.45-7.97 3.07-12.61-.16-1.89-.35-3.87 1.47-4.96 1.3-.78 2.85-.84 4.07.08 1.49 1.13 2.34 3.18 3.55 4.6 1.42 1.67 3.28 2.85 5.44 3.27 4.2.83 8.74-1.59 12.5 1.17 2.98 2.18 4.29 6.31 2.24 9.54-2.35 3.71-6.39 4.34-10.24 2.89-4.19-1.58-8.4-3.85-12.87-1.75-6.94 3.25-6.12 13.37-1.12 17.94 3.29 3 7.62 4.29 11.9 5.13 4.06.8 8.57 1.21 12.07 3.61 4.04 2.78 3.84 7.6 3.21 11.96-.65 4.51-1.51 8.89-1 13.47 1.01 9.08 5.3 17.32 6.7 26.3.31 2 .42 4.1.2 6.12-.15 1.4-.57 5.04-2.08 5.62-1.51.58-4.79-1.27-6.12-1.87-2.11-.96-4.1-2.15-5.46-4.06-5.57-7.86-.93-19.04-.25-27.6.65-8.13-2.08-17.82-10.27-21.24-2.11-.88-4.32-1.1-6.6-1.12-2.3-.02-4.71.28-6.82-.81-2.8-1.45-4.51-4.53-6.14-7.08-1.77-2.76-3.59-5.65-6.16-7.76-1.34-1.1-2.79-1.98-4.44-2.55-2.39-.83-4.94-.72-7.36-1.37-4.09-1.1-6.62-5.24-10.58-6.8-4.11-1.61-8.5-.79-12.61.37-4.45 1.26-8.46 2.64-13.06 1.24-4.3-1.31-8.59-3.35-13.16-1.88-3.85 1.24-6.37 4.34-9.32 6.88-3.45 2.96-7.11 2.16-11.31 1.89-4.02-.26-8.08.54-10.69 3.86-2.58 3.28-2.82 7.67-2.31 11.65.29 2.28.79 4.53.83 6.83.05 2.85-1.12 4.48-2.71 6.7-2.71 3.8-2.92 8.1-2.41 12.61.51 4.43 1.12 8.34-1.35 12.3-2.04 3.26-4.63 6.42-4.54 10.49.19 8.21 9.97 13.18 17.22 13.08 8.21-.12 13.78-6.17 13.45-14.33-.16-3.92-1.41-7.77-1.29-11.71.15-4.49 3.78-6.29 6.73-9.04 3.17-2.96 4.48-6.76 4.83-11 .32-3.91-.44-8.02.52-11.86.91-3.64 3.81-5.66 7.54-5.43 3.82.23 6.7 2.83 7.96 6.36 2.96 8.26-3.02 15.61-7.43 21.98-2.21 3.19-4.3 6.49-5.55 10.19-1.39 4.14-1.16 8.32-.12 12.5.89 3.59 3.03 8.45.37 11.78-1.75 2.19-4.79 3.13-7.35 3.98-6.14 2.05-13.47 4.07-15.67 10.99-1.53 4.83.28 9.72 1.91 14.25 1.65 4.6 2.77 9.44 1.65 14.31-1.03 4.44-4.56 7.77-5.44 12.25-.94 4.82 1.16 9.38 3.89 13.24 4.94 6.97 11.61 13.99 20.93 11 2.08-.67 4.02-1.68 6.11-2.3 2.37-.7 4.25-.29 6.53.51 3.99 1.41 8.17 2.41 11.88-.29 7.27-5.3 4.76-15.83-2.73-19.42-3.82-1.83-7.44-1.12-11.48-1.38-1.91-.12-2.81-.66-2.57-2.73.28-2.43 1.41-4.85 1.97-7.23 1.13-4.76 1.45-9.77-.83-14.25-.91-1.79-2.23-3.33-3.4-4.95-.84-1.16-2.36-2.89-2.16-4.46.21-1.62 2.24-2.42 3.54-2.96 1.96-.82 3.98-1.47 5.89-2.4 3.82-1.86 7.45-4.46 10.3-7.61 2.74-3.03 4.99-6.67 5.87-10.71 1.04-4.78-.24-8.89-1.3-13.52-1.03-4.54.95-7.59 3.56-11.12 2.46-3.34 4.84-6.67 5.47-10.87.63-4.22-.26-8.39-.14-12.61.1-3.48 1.8-6.61 5.68-6.32 9.69.72 9.71 13.93 8.69 20.94-1.3 8.99-10.44 14.86-8.53 24.64 1.84 9.46 13.3 10.03 19 3.66 3.12-3.49 4.99-8.13 6.16-12.61.61-2.34.91-4.72 1.22-7.11.28-2.17.5-5.02 2.37-6.48 1.65-1.29 2.94-.14 3.37 1.62.62 2.57-.63 5.44-1.11 7.95-.8 4.15-.91 8.34-.29 12.52 1.37 9.17 6.42 16.01 14 21.09 3.65 2.45 7.95 4.83 9.73 9.1 1.96 4.72-1.41 7.7-5.18 9.97a27.08 27.08 0 0 1-13.05 3.88c-3.73.12-9.79.05-11.09-4.28-1.16-3.86.47-8.18.75-12.07.27-3.69-.24-7.75-2.62-10.72-5.91-7.41-16.11-1.84-18.59 5.67-1.63 4.94-.38 10.3.36 15.27.72 4.81 1.12 10.72-.7 15.35-.61 1.56-2.14 3.71-4.12 3.21-1.65-.42-2.97-2.6-4.58-3.35-3.6-1.68-7.41-.31-10.28-3.7-5.08-6.02 1.05-14.32 8.32-12.08 3.91 1.2 5.58-4.91 1.68-6.11-7.39-2.28-16.16 2.3-17.99 9.97-1.86 7.76 3.96 16.12 11.84 17.15 1.04.14 2.25.04 3.25.34.98.29 1.5.95 2.25 1.61 1.64 1.46 3.49 2.53 5.75 2.57 4.52.07 8.09-3.16 9.7-7.16 1.82-4.5 1.94-9.94 1.58-14.72-.39-5.15-2.51-10.86-1.14-15.98.73-2.74 4.71-7.38 7.59-4.28 2.39 2.56 1.36 7.32.88 10.38-.63 4-1.11 8.29.61 12.1 1.89 4.2 5.97 6.04 10.3 6.72 8.99 1.42 18.34-.84 25.55-6.42 3.46-2.68 6.14-6.24 5.9-10.83-.24-4.39-2.61-8.49-5.78-11.44-3.54-3.29-8.04-5.32-11.63-8.53-3.17-2.84-5.28-6.52-6.41-10.6-1.09-3.93-1.3-8.16-.63-12.18.76-4.63 2.66-9.2.63-13.79-1.73-3.91-5.84-6.16-10.02-4.73-4.44 1.52-6.52 5.96-7.19 10.29-.77 5.01-1.35 9.84-3.65 14.44-1.4 2.8-5.81 8.64-9.45 5.21-2.65-2.5-.78-7.23.68-9.79 2.38-4.15 5.35-7.84 6.39-12.63 1.81-8.26 1.78-19.88-4.77-26.19-5.43-5.23-15.32-6.13-19.76.84-4.64 7.29.9 16.33-3.49 23.63-2.03 3.37-4.85 6.2-6.45 9.83-2.04 4.61-1.13 8.91.1 13.6 2.31 8.77-3.05 15.9-10.4 20.23-3.55 2.09-7.86 2.85-11.18 5.29-3.17 2.34-4.61 6.24-3.27 10.04 1.4 3.99 5.17 6.67 6.38 10.7 1.45 4.87-1 9.83-2.09 14.5-.94 4.02-.25 8.44 3.76 10.48 3.64 1.85 7.55.42 11.34 1.1 3.46.62 6.96 3.85 5.29 7.58-1.91 4.26-6.65 1.24-9.78.39-4.72-1.28-8.57.39-12.93 2.02-1.94.72-3.93 1.34-5.97.68-2.04-.66-3.66-2.11-5.12-3.63-2.91-3.05-6.76-7.44-7.1-11.81-.17-2.16.95-3.99 2.01-5.78 1.3-2.21 2.52-4.42 3.22-6.9 1.26-4.48 1.09-9.32.03-13.82-1.08-4.57-4.36-9.51-3.67-14.31.89-6.21 10.2-7.13 14.86-9.04 3.05-1.25 5.89-2.91 7.81-5.66 2.51-3.61 2.38-7.98 1.46-12.1-.93-4.14-2.57-8.11-1.46-12.38.98-3.81 3.31-7.13 5.52-10.32 4.69-6.74 9.71-13.8 8.71-22.46-.93-8.08-6.76-14.96-15.26-15.12-3.72-.07-7.57 1.3-10.13 4.05-2.85 3.06-3.68 7.21-3.83 11.26-.14 3.8.62 8.11-.83 11.75-1.51 3.8-5.96 5.56-8.33 8.77-2.47 3.35-2.76 7.46-2.28 11.46.44 3.65 1.79 7.81.79 11.47-2 7.34-12.91 4.92-16.55.42-2.86-3.53.83-7.08 2.7-10.13 2.36-3.86 2.82-7.92 2.36-12.36-.45-4.28-1.47-8.48 1.21-12.23 3.09-4.31 3.97-8.08 3.26-13.38-.44-3.26-2.11-8.94.83-11.56 2.72-2.43 8.26-.43 11.53-.59 4.31-.2 7.55-2.19 10.62-5.08 3.23-3.03 5.59-5.41 10.28-4.09 4.48 1.26 8.37 3.03 13.14 2.42 4.48-.57 8.69-2.72 13.18-3.05 4.5-.33 6.94 2.87 10.29 5.27 1.78 1.27 3.75 2.09 5.91 2.48 2.22.4 4.61.34 6.66 1.38 2.84 1.44 4.57 4.53 6.23 7.1 1.76 2.75 3.56 5.64 6.11 7.74 3.52 2.91 7.41 3.31 11.85 3.29 4.63-.02 7.76 1.76 9.71 6.05 4.06 8.92-1.21 19.18-1 28.43.09 4.15.94 8.49 3.2 12.03 2.54 3.98 6.43 6.1 10.7 7.8 4.09 1.64 9 2.77 12.09-1.29 2.48-3.26 3.11-8.18 2.97-12.17-.32-9.09-4.53-17.38-6.42-26.15-.97-4.49-.78-8.72-.06-13.23.72-4.52 1.56-9.32-.09-13.75-3.31-8.93-12.88-9.88-20.93-11.68-3.56-.8-8.09-2.06-9.31-5.95-1.12-3.59.83-5.95 4.53-4.82 4.38 1.33 7.99 3.7 12.76 2.88 3.99-.69 7.59-3.25 9.72-6.68 4.53-7.3.25-16.83-7.47-19.71-1.81-.67-3.74-.86-5.66-.73-2.16.15-5.14 1.14-7.07-.2-1.4-.98-2.26-2.92-3.31-4.24-1.27-1.59-2.84-2.92-4.82-3.51-3.55-1.07-7.68.04-10.25 2.7-3.69 3.81-1.88 8.22-2.29 12.84-.33 3.67-3.29 7.41-7.25 7.01-4.05-.4-5.53-3.91-4.59-7.53 1.08-4.15 3.46-7.82 4.63-11.95.61-2.17.82-4.4.73-6.65-.1-2.43-.76-5.31.37-7.59 1.49-3.02 5.5-3.56 8.51-3.41 4.25.21 8.19 2.42 12.04 4.03 4.51 1.89 8.92 2.97 13.83 2.65 3.88-.25 9.27-1.58 12.11 1.91 1.31 1.61 2.13 3.6 3.38 5.27 1.27 1.71 2.7 3.28 4.17 4.81 2.93 3.07 6.08 6.14 6.82 10.5 1.38 8.16-3.08 16.24-.97 24.44 1.1 4.29 4.26 6.81 6.45 10.44 1.33 2.2.62 4.28-.05 6.59-.79 2.72-1.31 5.48-1.65 8.29-.65 5.36-.77 10.78-1.32 16.15-.46 4.46-.58 8.96 1.33 13.13 1.74 3.8 5.41 5.9 7.44 9.4.96 1.66.27 2.7-.96 4.01-1.46 1.56-2.93 3.01-3.75 5.02-3.01 7.32 5.2 14.94-.15 21.46-2.27 2.77-5.15 4.96-7.09 8.01-2.42 3.8-2.21 7.83-.9 11.99.54 1.73 1.57 3.92 1.05 5.78-.56 2-2.8 1.67-4.5 1.79-4.44.29-8.24 2.13-10.89 5.77-2.51 3.45-2.96 7.37-2.17 11.47.26 1.34 1.18 3.79-.99 3.53-2.02-.24-3.49-2.49-4.72-3.89-6.22-7.11-15.68-8.22-24.58-6.78-9.12 1.48-18.04 7.1-20.45 16.5-1.14 4.43.41 8.21.5 12.57.09 4.83-5.94 2.69-9.04 2.65-4.42-.05-7.52 2.03-10.48 5.12-1.25 1.3-2.51 2.88-4.3 3.42-2.27.68-4.85-.44-6.96-1.21-4.53-1.64-8.74-2.79-13.58-1.83-4.23.84-7.95 3.21-10.78 6.41-1.78 2.01-5.13 7.47-7.92 4.08-2.51-3.05-3.05-6.81-6.78-8.89-6.19-3.47-14.42-.61-19.79 3.18-3.87 2.73-6.8 6.64-10.91 9.04-3.5 2.04-7.89 3.16-11.88 2.02-6.41-1.83-10-11.92-2.55-14.97 3.68-1.5 7.87-1.33 11.68-2.31 3.9-1 7.45-3.19 9.42-6.8 4.62-8.44-.05-17.54-1.88-25.97-.52-2.41-.75-4.93-.13-7.35.65-2.52 2.08-4.78 3.05-7.18 1.65-4.08 2.02-8.46 1.37-12.79-1.37-9.15-7.04-17.33-13.43-23.78-3.23-3.26-6.97-6.2-9.39-10.16-2.11-3.46-3.26-8.43-.25-11.73 2.79-3.05 6.76-4.5 9.24-7.95 1.99-2.76 3.01-6.08 3.28-9.46.56-7.03-2.73-14.17-8.82-17.84-3.5-2.11-6.69 3.37-3.2 5.47Z" />
    </pattern>
  </defs>
  <path fill="url(#a)" opacity="0.2" d="M0 0h1925.52v949.86H0z" />
</svg>