<svg xmlns="http://www.w3.org/2000/svg" viewBox="0 0 920 920">
  <g id="Capa_1-2" data-name="Capa 1">
    <path
      d="M892 453v-54H758c-24-44-65-67-116-67-37 0-72 13-97 38a130 130 0 0 0-14 16 90 90 0 0 0-15-19c-21-21-51-31-93-31H296v131l-56-132H137L28 596h130l10-28h40l11 28h197v-24l16 24h141l-15-22a135 135 0 0 0 81 26c29 0 54-6 76-20 18-12 33-28 45-49l3-6 75-1c14 0 27-4 37-11 12-9 17-22 17-37v-23Z"
      style="fill:#000000" />
    <path
      d="M154 360h69l89 211h-76l-11-28h-74l-11 28H65Zm53 133-19-51-19 51ZM321 361h102c38 0 61 9 76 24 13 13 19 28 19 50 0 31-16 52-42 65l49 71h-80l-39-60h-15v60h-70Zm100 100c17 0 27-8 27-21 0-14-10-20-27-20h-30v41ZM530 467v-1c0-63 49-109 112-109 46 0 77 22 95 54l-58 34c-8-15-19-25-38-25-24 0-39 20-39 45v1c0 27 16 46 39 46 20 0 31-10 39-26l58 33c-17 31-47 56-99 56-58 0-109-43-109-108ZM740 480l31-22c4-4 6-6 6-9 0-4-2-6-6-6s-8 3-15 9l-16-13c9-11 17-17 33-17 17 0 29 10 29 24v1c0 11-6 17-15 23l-13 8h29v20h-63ZM804 486l15-15c6 5 11 8 17 8s9-3 9-6c0-4-3-6-10-6h-10l-4-11 17-13h-28v-19h57v17l-16 12c11 3 18 9 18 21 0 16-14 25-30 25s-27-5-35-13Z"
      style="fill:#f1f1f1" />
  </g>
</svg>