<svg xmlns="http://www.w3.org/2000/svg" viewBox="0 0 450.24 182.5">
  <defs>
    <style>
      .cls-2{stroke-width:0;fill:#fff}
    </style>
  </defs>
  <g>
    <path stroke-width="0"
      d="M419.21 94.91v-7.6l23.54-21.52c7.96-7.28 9.79-19.11 4.41-28.45C444.98 33.54 424.24.25 369.51 0c-26.4-.13-50.65 9.16-68.44 26.16-.92-.95-1.86-1.89-2.85-2.8-22.95-21-55.41-20.7-62.17-20.38h-60.91c-12.7 0-23 10.3-23 23v9.72l-8.07-18.79a22.995 22.995 0 0 0-21.13-13.92H63.17c-7.86 0-15.18 4.02-19.4 10.65L26.11 41.39a22.999 22.999 0 0 0 7.27 31.89L1.83 147.6a22.982 22.982 0 0 0 1.99 21.68A22.99 22.99 0 0 0 23 179.59h44.25c9.48 0 17.99-5.81 21.43-14.65l3.22-8.25h17.15l2.71 7.61a22.996 22.996 0 0 0 21.67 15.29h85.78c6.42 0 12.23-2.63 16.4-6.87a22.988 22.988 0 0 0 16.78 6.87l46.77-.78c7.32-.12 14.08-3.72 18.29-9.56 13.78 8.14 29.95 12.74 47.26 13.21 1.08.03 2.14.04 3.2.04 41.6 0 68.59-22.31 78.12-35.8 6.68-9.46 5.29-22.42-3.26-30.24l-23.55-21.54Z" />
    <path
      d="m398.97 74.66 28.27-25.85S412.49 23.19 369.41 23c-43.08-.19-72.77 30.76-72.77 67.34s26 67.96 68.7 69.12c42.69 1.16 61.91-26.04 61.91-26.04l-27.36-25.03s-12.81 15.53-28.72 14.94c-15.91-.58-30.27-14.13-29.69-32.1.58-17.97 10.29-31.75 29.69-31.94 19.41-.19 27.82 15.37 27.82 15.37ZM122.94 25.98H63.17L45.51 53.73h21.15L23 156.58h44.25l8.93-22.9h49.1l8.15 22.9h41.72v-9.04L122.94 25.98ZM88.4 101.86l12.32-32.02 12.32 32.02H88.39Z"
      class="cls-2" />
    <path
      d="M272.57 115.83s24.82-7.77 24.06-41.72c-1.16-52.01-59.97-48.13-59.97-48.13h-61.52v121.57l3.88 9.04h40.17v-33.18h11.06l21.74 33.18 46.77-.78-26.2-39.98Zm-35.61-25.42h-18.34v-29.5h17.66s15.53-.38 16.3 13.2c.98 17.05-15.62 16.3-15.62 16.3Z"
      class="cls-2" />
    <path d="M175.15 156.58h3.88l-3.88-9.03v9.03z" class="cls-2" />
  </g>
</svg>